<?xml version="1.0" encoding="utf-8" standalone="no"?>
<!DOCTYPE svg PUBLIC "-//W3C//DTD SVG 1.1//EN"
  "http://www.w3.org/Graphics/SVG/1.1/DTD/svg11.dtd">
<svg xmlns:xlink="http://www.w3.org/1999/xlink" width="864pt" height="475.2pt" viewBox="0 0 864 475.2" xmlns="http://www.w3.org/2000/svg" version="1.1">
 <metadata>
  <rdf:RDF xmlns:dc="http://purl.org/dc/elements/1.1/" xmlns:cc="http://creativecommons.org/ns#" xmlns:rdf="http://www.w3.org/1999/02/22-rdf-syntax-ns#">
   <cc:Work>
    <dc:type rdf:resource="http://purl.org/dc/dcmitype/StillImage"/>
    <dc:date>2026-08-22T23:38:03.603260</dc:date>
    <dc:format>image/svg+xml</dc:format>
    <dc:creator>
     <cc:Agent>
      <dc:title>Matplotlib v3.10.8, https://matplotlib.org/</dc:title>
     </cc:Agent>
    </dc:creator>
   </cc:Work>
  </rdf:RDF>
 </metadata>
 <defs>
  <style type="text/css">*{stroke-linejoin: round; stroke-linecap: butt}</style>
 </defs>
 <g id="figure_1">
  <g id="patch_1">
   <path d="M 0 475.2
L 864 475.2
L 864 0
L 0 0
z
" style="fill: #060a0e"/>
  </g>
  <g id="axes_1">
   <g id="patch_2">
    <path d="M 77.76 408.672
L 838.08 408.672
L 838.08 142.56
L 77.76 142.56
z
" style="fill: #0b1218"/>
   </g>
   <g id="patch_3">
    <path d="M 77.76 368.226478
L 838.08 368.226478
L 838.08 142.56
L 77.76 142.56
z
" clip-path="url(#p2f6b1db28d)" style="fill: #10b981; opacity: 0.055; stroke: #10b981; stroke-linejoin: miter"/>
   </g>
   <g id="matplotlib.axis_1">
    <g id="xtick_1">
     <g id="line2d_1">
      <path d="M 91.230854 408.672
L 91.230854 142.56
" clip-path="url(#p2f6b1db28d)" style="fill: none; stroke: #263640; stroke-opacity: 0.38; stroke-width: 0.6; stroke-linecap: square"/>
     </g>
     <g id="line2d_2"/>
     <g id="text_1">
      <text style="font-size: 11px; font-family: 'DejaVu Sans'; text-anchor: middle; fill: #91a1ad" x="91.230854" y="426.030281" transform="rotate(-0 91.230854 426.030281)">1</text>
     </g>
    </g>
    <g id="xtick_2">
     <g id="line2d_3">
      <path d="M 260.471998 408.672
L 260.471998 142.56
" clip-path="url(#p2f6b1db28d)" style="fill: none; stroke: #263640; stroke-opacity: 0.38; stroke-width: 0.6; stroke-linecap: square"/>
     </g>
     <g id="line2d_4"/>
     <g id="text_2">
      <text style="font-size: 11px; font-family: 'DejaVu Sans'; text-anchor: middle; fill: #91a1ad" x="260.471998" y="426.030281" transform="rotate(-0 260.471998 426.030281)">8</text>
     </g>
    </g>
    <g id="xtick_3">
     <g id="line2d_5">
      <path d="M 373.299428 408.672
L 373.299428 142.56
" clip-path="url(#p2f6b1db28d)" style="fill: none; stroke: #263640; stroke-opacity: 0.38; stroke-width: 0.6; stroke-linecap: square"/>
     </g>
     <g id="line2d_6"/>
     <g id="text_3">
      <text style="font-size: 11px; font-family: 'DejaVu Sans'; text-anchor: middle; fill: #91a1ad" x="373.299428" y="426.030281" transform="rotate(-0 373.299428 426.030281)">32</text>
     </g>
    </g>
    <g id="xtick_4">
     <g id="line2d_7">
      <path d="M 486.126857 408.672
L 486.126857 142.56
" clip-path="url(#p2f6b1db28d)" style="fill: none; stroke: #263640; stroke-opacity: 0.38; stroke-width: 0.6; stroke-linecap: square"/>
     </g>
     <g id="line2d_8"/>
     <g id="text_4">
      <text style="font-size: 11px; font-family: 'DejaVu Sans'; text-anchor: middle; fill: #91a1ad" x="486.126857" y="426.030281" transform="rotate(-0 486.126857 426.030281)">128</text>
     </g>
    </g>
    <g id="xtick_5">
     <g id="line2d_9">
      <path d="M 598.954287 408.672
L 598.954287 142.56
" clip-path="url(#p2f6b1db28d)" style="fill: none; stroke: #263640; stroke-opacity: 0.38; stroke-width: 0.6; stroke-linecap: square"/>
     </g>
     <g id="line2d_10"/>
     <g id="text_5">
      <text style="font-size: 11px; font-family: 'DejaVu Sans'; text-anchor: middle; fill: #91a1ad" x="598.954287" y="426.030281" transform="rotate(-0 598.954287 426.030281)">512</text>
     </g>
    </g>
    <g id="xtick_6">
     <g id="line2d_11">
      <path d="M 711.781717 408.672
L 711.781717 142.56
" clip-path="url(#p2f6b1db28d)" style="fill: none; stroke: #263640; stroke-opacity: 0.38; stroke-width: 0.6; stroke-linecap: square"/>
     </g>
     <g id="line2d_12"/>
     <g id="text_6">
      <text style="font-size: 11px; font-family: 'DejaVu Sans'; text-anchor: middle; fill: #91a1ad" x="711.781717" y="426.030281" transform="rotate(-0 711.781717 426.030281)">2K</text>
     </g>
    </g>
    <g id="xtick_7">
     <g id="line2d_13">
      <path d="M 824.609146 408.672
L 824.609146 142.56
" clip-path="url(#p2f6b1db28d)" style="fill: none; stroke: #263640; stroke-opacity: 0.38; stroke-width: 0.6; stroke-linecap: square"/>
     </g>
     <g id="line2d_14"/>
     <g id="text_7">
      <text style="font-size: 11px; font-family: 'DejaVu Sans'; text-anchor: middle; fill: #91a1ad" x="824.609146" y="426.030281" transform="rotate(-0 824.609146 426.030281)">8K</text>
     </g>
    </g>
    <g id="text_8">
     <text style="font-size: 13px; font-family: 'DejaVu Sans'; text-anchor: middle; fill: #91a1ad" x="457.92" y="442.195906" transform="rotate(-0 457.92 442.195906)">Input tokens before top-k</text>
    </g>
   </g>
   <g id="matplotlib.axis_2">
    <g id="ytick_1">
     <g id="line2d_15">
      <path d="M 77.76 404.550667
L 838.08 404.550667
" clip-path="url(#p2f6b1db28d)" style="fill: none; stroke: #263640; stroke-opacity: 0.9; stroke-width: 0.9; stroke-linecap: square"/>
     </g>
     <g id="line2d_16"/>
     <g id="text_9">
      <text style="font-size: 11px; font-family: 'DejaVu Sans'; text-anchor: end; fill: #91a1ad" x="68.76" y="408.729808" transform="rotate(-0 68.76 408.729808)">0.8×</text>
     </g>
    </g>
    <g id="ytick_2">
     <g id="line2d_17">
      <path d="M 77.76 368.226478
L 838.08 368.226478
" clip-path="url(#p2f6b1db28d)" style="fill: none; stroke: #263640; stroke-opacity: 0.9; stroke-width: 0.9; stroke-linecap: square"/>
     </g>
     <g id="line2d_18"/>
     <g id="text_10">
      <text style="font-size: 11px; font-family: 'DejaVu Sans'; text-anchor: end; fill: #91a1ad" x="68.76" y="372.405618" transform="rotate(-0 68.76 372.405618)">1×</text>
     </g>
    </g>
    <g id="ytick_3">
     <g id="line2d_19">
      <path d="M 77.76 331.902288
L 838.08 331.902288
" clip-path="url(#p2f6b1db28d)" style="fill: none; stroke: #263640; stroke-opacity: 0.9; stroke-width: 0.9; stroke-linecap: square"/>
     </g>
     <g id="line2d_20"/>
     <g id="text_11">
      <text style="font-size: 11px; font-family: 'DejaVu Sans'; text-anchor: end; fill: #91a1ad" x="68.76" y="336.081429" transform="rotate(-0 68.76 336.081429)">1.25×</text>
     </g>
    </g>
    <g id="ytick_4">
     <g id="line2d_21">
      <path d="M 77.76 302.223264
L 838.08 302.223264
" clip-path="url(#p2f6b1db28d)" style="fill: none; stroke: #263640; stroke-opacity: 0.9; stroke-width: 0.9; stroke-linecap: square"/>
     </g>
     <g id="line2d_22"/>
     <g id="text_12">
      <text style="font-size: 11px; font-family: 'DejaVu Sans'; text-anchor: end; fill: #91a1ad" x="68.76" y="306.402405" transform="rotate(-0 68.76 306.402405)">1.5×</text>
     </g>
    </g>
    <g id="ytick_5">
     <g id="line2d_23">
      <path d="M 77.76 255.393239
L 838.08 255.393239
" clip-path="url(#p2f6b1db28d)" style="fill: none; stroke: #263640; stroke-opacity: 0.9; stroke-width: 0.9; stroke-linecap: square"/>
     </g>
     <g id="line2d_24"/>
     <g id="text_13">
      <text style="font-size: 11px; font-family: 'DejaVu Sans'; text-anchor: end; fill: #91a1ad" x="68.76" y="259.572379" transform="rotate(-0 68.76 259.572379)">2×</text>
     </g>
    </g>
    <g id="ytick_6">
     <g id="line2d_25">
      <path d="M 77.76 189.390025
L 838.08 189.390025
" clip-path="url(#p2f6b1db28d)" style="fill: none; stroke: #263640; stroke-opacity: 0.9; stroke-width: 0.9; stroke-linecap: square"/>
     </g>
     <g id="line2d_26"/>
     <g id="text_14">
      <text style="font-size: 11px; font-family: 'DejaVu Sans'; text-anchor: end; fill: #91a1ad" x="68.76" y="193.569166" transform="rotate(-0 68.76 193.569166)">3×</text>
     </g>
    </g>
    <g id="ytick_7">
     <g id="line2d_27">
      <path d="M 77.76 142.56
L 838.08 142.56
" clip-path="url(#p2f6b1db28d)" style="fill: none; stroke: #263640; stroke-opacity: 0.9; stroke-width: 0.9; stroke-linecap: square"/>
     </g>
     <g id="line2d_28"/>
     <g id="text_15">
      <text style="font-size: 11px; font-family: 'DejaVu Sans'; text-anchor: end; fill: #91a1ad" x="68.76" y="146.739141" transform="rotate(-0 68.76 146.739141)">4×</text>
     </g>
    </g>
    <g id="ytick_8">
     <g id="line2d_29">
      <defs>
       <path id="mc3af227f99" d="M 0 0
L -2 0
" style="stroke: #91a1ad; stroke-width: 0.6"/>
      </defs>
      <g>
       <use xlink:href="#mc3af227f99" x="77.76" y="385.377479" style="fill: #91a1ad; stroke: #91a1ad; stroke-width: 0.6"/>
      </g>
     </g>
    </g>
    <g id="text_16">
     <text style="font-size: 13px; font-family: 'DejaVu Sans'; text-anchor: middle; fill: #91a1ad" x="28.346562" y="275.616" transform="rotate(-90 28.346562 275.616)">Speedup vs FlashInfer</text>
    </g>
   </g>
   <g id="line2d_30">
    <path d="M 91.230854 368.215605
L 260.471998 346.959629
L 373.299428 350.929508
L 486.126857 393.266998
L 598.954287 242.102768
L 711.781717 316.989728
L 824.609146 326.801668
" clip-path="url(#p2f6b1db28d)" style="fill: none; stroke: #6ee7b7; stroke-width: 2.6; stroke-linecap: round"/>
    <defs>
     <path id="md3ef99012d" d="M 0 3.25
C 0.86191 3.25 1.688635 2.907559 2.298097 2.298097
C 2.907559 1.688635 3.25 0.86191 3.25 0
C 3.25 -0.86191 2.907559 -1.688635 2.298097 -2.298097
C 1.688635 -2.907559 0.86191 -3.25 0 -3.25
C -0.86191 -3.25 -1.688635 -2.907559 -2.298097 -2.298097
C -2.907559 -1.688635 -3.25 -0.86191 -3.25 0
C -3.25 0.86191 -2.907559 1.688635 -2.298097 2.298097
C -1.688635 2.907559 -0.86191 3.25 0 3.25
z
" style="stroke: #6ee7b7; stroke-width: 2.1"/>
    </defs>
    <g clip-path="url(#p2f6b1db28d)">
     <use xlink:href="#md3ef99012d" x="91.230854" y="368.215605" style="fill: #0b1218; stroke: #6ee7b7; stroke-width: 2.1"/>
     <use xlink:href="#md3ef99012d" x="260.471998" y="346.959629" style="fill: #0b1218; stroke: #6ee7b7; stroke-width: 2.1"/>
     <use xlink:href="#md3ef99012d" x="373.299428" y="350.929508" style="fill: #0b1218; stroke: #6ee7b7; stroke-width: 2.1"/>
     <use xlink:href="#md3ef99012d" x="486.126857" y="393.266998" style="fill: #0b1218; stroke: #6ee7b7; stroke-width: 2.1"/>
     <use xlink:href="#md3ef99012d" x="598.954287" y="242.102768" style="fill: #0b1218; stroke: #6ee7b7; stroke-width: 2.1"/>
     <use xlink:href="#md3ef99012d" x="711.781717" y="316.989728" style="fill: #0b1218; stroke: #6ee7b7; stroke-width: 2.1"/>
     <use xlink:href="#md3ef99012d" x="824.609146" y="326.801668" style="fill: #0b1218; stroke: #6ee7b7; stroke-width: 2.1"/>
    </g>
   </g>
   <g id="line2d_31">
    <path d="M 91.230854 367.916869
L 260.471998 358.183539
L 373.299428 384.190689
L 486.126857 317.91793
L 598.954287 275.455989
L 711.781717 330.850659
L 824.609146 337.0818
" clip-path="url(#p2f6b1db28d)" style="fill: none; stroke: #38bdf8; stroke-width: 2.6; stroke-linecap: round"/>
    <defs>
     <path id="ma9f3d64052" d="M 0 3.25
C 0.86191 3.25 1.688635 2.907559 2.298097 2.298097
C 2.907559 1.688635 3.25 0.86191 3.25 0
C 3.25 -0.86191 2.907559 -1.688635 2.298097 -2.298097
C 1.688635 -2.907559 0.86191 -3.25 0 -3.25
C -0.86191 -3.25 -1.688635 -2.907559 -2.298097 -2.298097
C -2.907559 -1.688635 -3.25 -0.86191 -3.25 0
C -3.25 0.86191 -2.907559 1.688635 -2.298097 2.298097
C -1.688635 2.907559 -0.86191 3.25 0 3.25
z
" style="stroke: #38bdf8; stroke-width: 2.1"/>
    </defs>
    <g clip-path="url(#p2f6b1db28d)">
     <use xlink:href="#ma9f3d64052" x="91.230854" y="367.916869" style="fill: #0b1218; stroke: #38bdf8; stroke-width: 2.1"/>
     <use xlink:href="#ma9f3d64052" x="260.471998" y="358.183539" style="fill: #0b1218; stroke: #38bdf8; stroke-width: 2.1"/>
     <use xlink:href="#ma9f3d64052" x="373.299428" y="384.190689" style="fill: #0b1218; stroke: #38bdf8; stroke-width: 2.1"/>
     <use xlink:href="#ma9f3d64052" x="486.126857" y="317.91793" style="fill: #0b1218; stroke: #38bdf8; stroke-width: 2.1"/>
     <use xlink:href="#ma9f3d64052" x="598.954287" y="275.455989" style="fill: #0b1218; stroke: #38bdf8; stroke-width: 2.1"/>
     <use xlink:href="#ma9f3d64052" x="711.781717" y="330.850659" style="fill: #0b1218; stroke: #38bdf8; stroke-width: 2.1"/>
     <use xlink:href="#ma9f3d64052" x="824.609146" y="337.0818" style="fill: #0b1218; stroke: #38bdf8; stroke-width: 2.1"/>
    </g>
   </g>
   <g id="line2d_32">
    <path d="M 91.230854 367.557729
L 260.471998 317.484797
L 373.299428 398.977356
L 486.126857 333.691079
L 598.954287 337.37891
L 711.781717 317.875274
L 824.609146 317.518416
" clip-path="url(#p2f6b1db28d)" style="fill: none; stroke: #a78bfa; stroke-width: 2.6; stroke-linecap: round"/>
    <defs>
     <path id="me20048db62" d="M 0 3.25
C 0.86191 3.25 1.688635 2.907559 2.298097 2.298097
C 2.907559 1.688635 3.25 0.86191 3.25 0
C 3.25 -0.86191 2.907559 -1.688635 2.298097 -2.298097
C 1.688635 -2.907559 0.86191 -3.25 0 -3.25
C -0.86191 -3.25 -1.688635 -2.907559 -2.298097 -2.298097
C -2.907559 -1.688635 -3.25 -0.86191 -3.25 0
C -3.25 0.86191 -2.907559 1.688635 -2.298097 2.298097
C -1.688635 2.907559 -0.86191 3.25 0 3.25
z
" style="stroke: #a78bfa; stroke-width: 2.1"/>
    </defs>
    <g clip-path="url(#p2f6b1db28d)">
     <use xlink:href="#me20048db62" x="91.230854" y="367.557729" style="fill: #0b1218; stroke: #a78bfa; stroke-width: 2.1"/>
     <use xlink:href="#me20048db62" x="260.471998" y="317.484797" style="fill: #0b1218; stroke: #a78bfa; stroke-width: 2.1"/>
     <use xlink:href="#me20048db62" x="373.299428" y="398.977356" style="fill: #0b1218; stroke: #a78bfa; stroke-width: 2.1"/>
     <use xlink:href="#me20048db62" x="486.126857" y="333.691079" style="fill: #0b1218; stroke: #a78bfa; stroke-width: 2.1"/>
     <use xlink:href="#me20048db62" x="598.954287" y="337.37891" style="fill: #0b1218; stroke: #a78bfa; stroke-width: 2.1"/>
     <use xlink:href="#me20048db62" x="711.781717" y="317.875274" style="fill: #0b1218; stroke: #a78bfa; stroke-width: 2.1"/>
     <use xlink:href="#me20048db62" x="824.609146" y="317.518416" style="fill: #0b1218; stroke: #a78bfa; stroke-width: 2.1"/>
    </g>
   </g>
   <g id="line2d_33">
    <path d="M 91.230854 373.841437
L 260.471998 319.733775
L 373.299428 371.1943
L 486.126857 381.737944
L 598.954287 162.576253
L 711.781717 270.919282
L 824.609146 317.157428
" clip-path="url(#p2f6b1db28d)" style="fill: none; stroke: #fb923c; stroke-width: 2.6; stroke-linecap: round"/>
    <defs>
     <path id="m12ba94ab11" d="M 0 3.25
C 0.86191 3.25 1.688635 2.907559 2.298097 2.298097
C 2.907559 1.688635 3.25 0.86191 3.25 0
C 3.25 -0.86191 2.907559 -1.688635 2.298097 -2.298097
C 1.688635 -2.907559 0.86191 -3.25 0 -3.25
C -0.86191 -3.25 -1.688635 -2.907559 -2.298097 -2.298097
C -2.907559 -1.688635 -3.25 -0.86191 -3.25 0
C -3.25 0.86191 -2.907559 1.688635 -2.298097 2.298097
C -1.688635 2.907559 -0.86191 3.25 0 3.25
z
" style="stroke: #fb923c; stroke-width: 2.1"/>
    </defs>
    <g clip-path="url(#p2f6b1db28d)">
     <use xlink:href="#m12ba94ab11" x="91.230854" y="373.841437" style="fill: #0b1218; stroke: #fb923c; stroke-width: 2.1"/>
     <use xlink:href="#m12ba94ab11" x="260.471998" y="319.733775" style="fill: #0b1218; stroke: #fb923c; stroke-width: 2.1"/>
     <use xlink:href="#m12ba94ab11" x="373.299428" y="371.1943" style="fill: #0b1218; stroke: #fb923c; stroke-width: 2.1"/>
     <use xlink:href="#m12ba94ab11" x="486.126857" y="381.737944" style="fill: #0b1218; stroke: #fb923c; stroke-width: 2.1"/>
     <use xlink:href="#m12ba94ab11" x="598.954287" y="162.576253" style="fill: #0b1218; stroke: #fb923c; stroke-width: 2.1"/>
     <use xlink:href="#m12ba94ab11" x="711.781717" y="270.919282" style="fill: #0b1218; stroke: #fb923c; stroke-width: 2.1"/>
     <use xlink:href="#m12ba94ab11" x="824.609146" y="317.157428" style="fill: #0b1218; stroke: #fb923c; stroke-width: 2.1"/>
    </g>
   </g>
   <g id="line2d_34">
    <path d="M 91.230854 376.027278
L 260.471998 315.012068
L 373.299428 373.510388
L 486.126857 379.666073
L 598.954287 168.241612
L 711.781717 259.55489
L 824.609146 299.670346
" clip-path="url(#p2f6b1db28d)" style="fill: none; stroke: #f472b6; stroke-width: 2.6; stroke-linecap: round"/>
    <defs>
     <path id="m266f8ce6e9" d="M 0 3.25
C 0.86191 3.25 1.688635 2.907559 2.298097 2.298097
C 2.907559 1.688635 3.25 0.86191 3.25 0
C 3.25 -0.86191 2.907559 -1.688635 2.298097 -2.298097
C 1.688635 -2.907559 0.86191 -3.25 0 -3.25
C -0.86191 -3.25 -1.688635 -2.907559 -2.298097 -2.298097
C -2.907559 -1.688635 -3.25 -0.86191 -3.25 0
C -3.25 0.86191 -2.907559 1.688635 -2.298097 2.298097
C -1.688635 2.907559 -0.86191 3.25 0 3.25
z
" style="stroke: #f472b6; stroke-width: 2.1"/>
    </defs>
    <g clip-path="url(#p2f6b1db28d)">
     <use xlink:href="#m266f8ce6e9" x="91.230854" y="376.027278" style="fill: #0b1218; stroke: #f472b6; stroke-width: 2.1"/>
     <use xlink:href="#m266f8ce6e9" x="260.471998" y="315.012068" style="fill: #0b1218; stroke: #f472b6; stroke-width: 2.1"/>
     <use xlink:href="#m266f8ce6e9" x="373.299428" y="373.510388" style="fill: #0b1218; stroke: #f472b6; stroke-width: 2.1"/>
     <use xlink:href="#m266f8ce6e9" x="486.126857" y="379.666073" style="fill: #0b1218; stroke: #f472b6; stroke-width: 2.1"/>
     <use xlink:href="#m266f8ce6e9" x="598.954287" y="168.241612" style="fill: #0b1218; stroke: #f472b6; stroke-width: 2.1"/>
     <use xlink:href="#m266f8ce6e9" x="711.781717" y="259.55489" style="fill: #0b1218; stroke: #f472b6; stroke-width: 2.1"/>
     <use xlink:href="#m266f8ce6e9" x="824.609146" y="299.670346" style="fill: #0b1218; stroke: #f472b6; stroke-width: 2.1"/>
    </g>
   </g>
   <g id="line2d_35">
    <path d="M 91.230854 368.112242
L 260.471998 349.160477
L 373.299428 400.32293
L 486.126857 356.365213
L 598.954287 369.588039
L 711.781717 348.449031
L 824.609146 342.02846
" clip-path="url(#p2f6b1db28d)" style="fill: none; stroke: #facc15; stroke-width: 2.6; stroke-linecap: round"/>
    <defs>
     <path id="mfde412cb3a" d="M 0 3.25
C 0.86191 3.25 1.688635 2.907559 2.298097 2.298097
C 2.907559 1.688635 3.25 0.86191 3.25 0
C 3.25 -0.86191 2.907559 -1.688635 2.298097 -2.298097
C 1.688635 -2.907559 0.86191 -3.25 0 -3.25
C -0.86191 -3.25 -1.688635 -2.907559 -2.298097 -2.298097
C -2.907559 -1.688635 -3.25 -0.86191 -3.25 0
C -3.25 0.86191 -2.907559 1.688635 -2.298097 2.298097
C -1.688635 2.907559 -0.86191 3.25 0 3.25
z
" style="stroke: #facc15; stroke-width: 2.1"/>
    </defs>
    <g clip-path="url(#p2f6b1db28d)">
     <use xlink:href="#mfde412cb3a" x="91.230854" y="368.112242" style="fill: #0b1218; stroke: #facc15; stroke-width: 2.1"/>
     <use xlink:href="#mfde412cb3a" x="260.471998" y="349.160477" style="fill: #0b1218; stroke: #facc15; stroke-width: 2.1"/>
     <use xlink:href="#mfde412cb3a" x="373.299428" y="400.32293" style="fill: #0b1218; stroke: #facc15; stroke-width: 2.1"/>
     <use xlink:href="#mfde412cb3a" x="486.126857" y="356.365213" style="fill: #0b1218; stroke: #facc15; stroke-width: 2.1"/>
     <use xlink:href="#mfde412cb3a" x="598.954287" y="369.588039" style="fill: #0b1218; stroke: #facc15; stroke-width: 2.1"/>
     <use xlink:href="#mfde412cb3a" x="711.781717" y="348.449031" style="fill: #0b1218; stroke: #facc15; stroke-width: 2.1"/>
     <use xlink:href="#mfde412cb3a" x="824.609146" y="342.02846" style="fill: #0b1218; stroke: #facc15; stroke-width: 2.1"/>
    </g>
   </g>
   <g id="line2d_36">
    <path d="M 77.76 368.226478
L 838.08 368.226478
" clip-path="url(#p2f6b1db28d)" style="fill: none; stroke-dasharray: 7.5,7.5; stroke-dashoffset: 0; stroke: #91a1ad; stroke-width: 1.5"/>
   </g>
   <g id="patch_4">
    <path d="M 77.76 408.672
L 77.76 142.56
" style="fill: none; stroke: #263640; stroke-width: 0.8; stroke-linejoin: miter; stroke-linecap: square"/>
   </g>
   <g id="patch_5">
    <path d="M 77.76 408.672
L 838.08 408.672
" style="fill: none; stroke: #263640; stroke-width: 0.8; stroke-linejoin: miter; stroke-linecap: square"/>
   </g>
  </g>
  <g id="text_17">
   <text style="font-weight: 700; font-size: 24px; font-family: 'DejaVu Sans'; text-anchor: start; fill: #f3f7f9" x="47.52" y="35.64" transform="rotate(-0 47.52 35.64)">Complete MoE inference speedup</text>
  </g>
  <g id="text_18">
   <text style="font-size: 12px; font-family: 'DejaVu Sans'; text-anchor: start; fill: #91a1ad" x="47.52" y="59.4" transform="rotate(-0 47.52 59.4)">FlashInfer latency / LightMoE latency</text>
  </g>
  <g id="text_19">
   <text style="font-size: 11px; font-family: 'DejaVu Sans'; text-anchor: end; fill: #91a1ad" x="838.08" y="35.64" transform="rotate(-0 838.08 35.64)">B200 · higher is better</text>
  </g>
  <g id="legend_1">
   <g id="line2d_37">
    <path d="M 53.1 104.696281
L 66.3 104.696281
L 79.5 104.696281
" style="fill: none; stroke: #6ee7b7; stroke-width: 2.6; stroke-linecap: round"/>
    <g>
     <use xlink:href="#md3ef99012d" x="66.3" y="104.696281" style="fill: #0b1218; stroke: #6ee7b7; stroke-width: 2.1"/>
    </g>
   </g>
   <g id="text_20">
    <text style="font-size: 11px; font-family: 'DejaVu Sans'; text-anchor: start; fill: #f3f7f9" x="87.2" y="108.546281" transform="rotate(-0 87.2 108.546281)">Qwen3.5 35B-A3B</text>
   </g>
   <g id="line2d_38">
    <path d="M 53.1 120.842219
L 66.3 120.842219
L 79.5 120.842219
" style="fill: none; stroke: #38bdf8; stroke-width: 2.6; stroke-linecap: round"/>
    <g>
     <use xlink:href="#ma9f3d64052" x="66.3" y="120.842219" style="fill: #0b1218; stroke: #38bdf8; stroke-width: 2.1"/>
    </g>
   </g>
   <g id="text_21">
    <text style="font-size: 11px; font-family: 'DejaVu Sans'; text-anchor: start; fill: #f3f7f9" x="87.2" y="124.692219" transform="rotate(-0 87.2 124.692219)">Qwen3.5 397B-A17B</text>
   </g>
   <g id="line2d_39">
    <path d="M 220.717656 104.696281
L 233.917656 104.696281
L 247.117656 104.696281
" style="fill: none; stroke: #a78bfa; stroke-width: 2.6; stroke-linecap: round"/>
    <g>
     <use xlink:href="#me20048db62" x="233.917656" y="104.696281" style="fill: #0b1218; stroke: #a78bfa; stroke-width: 2.1"/>
    </g>
   </g>
   <g id="text_22">
    <text style="font-size: 11px; font-family: 'DejaVu Sans'; text-anchor: start; fill: #f3f7f9" x="254.817656" y="108.546281" transform="rotate(-0 254.817656 108.546281)">DeepSeek V4 Flash</text>
   </g>
   <g id="line2d_40">
    <path d="M 220.717656 120.842219
L 233.917656 120.842219
L 247.117656 120.842219
" style="fill: none; stroke: #fb923c; stroke-width: 2.6; stroke-linecap: round"/>
    <g>
     <use xlink:href="#m12ba94ab11" x="233.917656" y="120.842219" style="fill: #0b1218; stroke: #fb923c; stroke-width: 2.1"/>
    </g>
   </g>
   <g id="text_23">
    <text style="font-size: 11px; font-family: 'DejaVu Sans'; text-anchor: start; fill: #f3f7f9" x="254.817656" y="124.692219" transform="rotate(-0 254.817656 124.692219)">GLM-5.2</text>
   </g>
   <g id="line2d_41">
    <path d="M 380.838125 104.696281
L 394.038125 104.696281
L 407.238125 104.696281
" style="fill: none; stroke: #f472b6; stroke-width: 2.6; stroke-linecap: round"/>
    <g>
     <use xlink:href="#m266f8ce6e9" x="394.038125" y="104.696281" style="fill: #0b1218; stroke: #f472b6; stroke-width: 2.1"/>
    </g>
   </g>
   <g id="text_24">
    <text style="font-size: 11px; font-family: 'DejaVu Sans'; text-anchor: start; fill: #f3f7f9" x="414.938125" y="108.546281" transform="rotate(-0 414.938125 108.546281)">MiniMax M3</text>
   </g>
   <g id="line2d_42">
    <path d="M 380.838125 120.842219
L 394.038125 120.842219
L 407.238125 120.842219
" style="fill: none; stroke: #facc15; stroke-width: 2.6; stroke-linecap: round"/>
    <g>
     <use xlink:href="#mfde412cb3a" x="394.038125" y="120.842219" style="fill: #0b1218; stroke: #facc15; stroke-width: 2.1"/>
    </g>
   </g>
   <g id="text_25">
    <text style="font-size: 11px; font-family: 'DejaVu Sans'; text-anchor: start; fill: #f3f7f9" x="414.938125" y="124.692219" transform="rotate(-0 414.938125 124.692219)">Nemotron 3.5 30B-A3B</text>
   </g>
  </g>
 </g>
 <defs>
  <clipPath id="p2f6b1db28d">
   <rect x="77.76" y="142.56" width="760.32" height="266.112"/>
  </clipPath>
 </defs>
</svg>
