<svg xmlns="http://www.w3.org/2000/svg" width="1200" height="660" viewBox="0 0 1200 660" role="img" aria-labelledby="title desc">
<title id="title">Complete MoE inference latency</title>
<desc id="desc">LightMoE complete routed-expert inference latency across model-derived token counts.</desc>
<defs><style>
text { font-family: Inter, ui-sans-serif, system-ui, -apple-system, BlinkMacSystemFont, "Segoe UI", sans-serif; }
.bg { fill:#f8fafc; } .panel { fill:#fff; stroke:#e2e8f0; stroke-width:1; }
.title { fill:#0f172a; font-size:30px; font-weight:650; } .subtitle { fill:#64748b; font-size:14px; }
.plot-title { fill:#0f172a; font-size:16px; font-weight:650; } .axis { fill:#475569; font-size:12px; }
.tick { fill:#64748b; font-size:11px; } .legend { fill:#334155; font-size:12px; font-weight:550; }
.grid { stroke:#e2e8f0; stroke-width:1; } .reference { stroke:#475569; stroke-width:1.8; stroke-dasharray:6 5; }
.line { fill:none; stroke-width:3; stroke-linecap:round; stroke-linejoin:round; }
.marker { fill:#fff; stroke-width:2.5; } .footer { fill:#64748b; font-size:11px; }
.zone-win { fill:#10b981; opacity:.07; } .zone-loss { fill:#e11d48; opacity:.06; }
.zone-label { fill:#475569; font-size:11px; font-weight:600; } .endpoint { font-size:12px; font-weight:650; }
.c0{stroke:#2563eb}.c1{stroke:#f97316}.c2{stroke:#10b981}.c3{stroke:#8b5cf6}.c4{stroke:#e11d48}.c5{stroke:#0891b2}
.fill0{fill:#2563eb}.fill1{fill:#f97316}.fill2{fill:#10b981}.fill3{fill:#8b5cf6}.fill4{fill:#e11d48}.fill5{fill:#0891b2}
@media(prefers-color-scheme:dark){
.bg{fill:#0b1220}.panel{fill:#111827;stroke:#273449}.title,.plot-title{fill:#f1f5f9}
.subtitle,.tick,.footer{fill:#94a3b8}.axis,.legend,.zone-label{fill:#cbd5e1}.grid{stroke:#273449}.reference{stroke:#94a3b8}.marker{fill:#111827}
.zone-win{fill:#34d399;opacity:.08}.zone-loss{fill:#fb7185;opacity:.07}
.c0{stroke:#60a5fa}.c1{stroke:#fb923c}.c2{stroke:#34d399}.c3{stroke:#a78bfa}.c4{stroke:#fb7185}.c5{stroke:#22d3ee}
.fill0{fill:#60a5fa}.fill1{fill:#fb923c}.fill2{fill:#34d399}.fill3{fill:#a78bfa}.fill4{fill:#fb7185}.fill5{fill:#22d3ee}
}
</style></defs>
<rect class="bg" width="1200" height="660" rx="22"/>
<text class="title" x="55" y="51">Complete MoE inference latency</text>
<text class="subtitle" x="55" y="78">Input quantization · routed projections · activation · routing-weight application · combine</text>
<line class="line c0" x1="88" y1="116" x2="113" y2="116"/>
<circle class="marker c0" cx="100.5" cy="116" r="3.5"/>
<text class="legend" x="124" y="120">Qwen3.5 35B-A3B</text>
<line class="line c1" x1="453" y1="116" x2="478" y2="116"/>
<circle class="marker c1" cx="465.5" cy="116" r="3.5"/>
<text class="legend" x="489" y="120">Qwen3.5 397B-A17B</text>
<line class="line c2" x1="818" y1="116" x2="843" y2="116"/>
<circle class="marker c2" cx="830.5" cy="116" r="3.5"/>
<text class="legend" x="854" y="120">DeepSeek V4 Flash</text>
<line class="line c3" x1="88" y1="143" x2="113" y2="143"/>
<circle class="marker c3" cx="100.5" cy="143" r="3.5"/>
<text class="legend" x="124" y="147">GLM-5.2</text>
<line class="line c4" x1="453" y1="143" x2="478" y2="143"/>
<circle class="marker c4" cx="465.5" cy="143" r="3.5"/>
<text class="legend" x="489" y="147">MiniMax M3</text>
<line class="line c5" x1="818" y1="143" x2="843" y2="143"/>
<circle class="marker c5" cx="830.5" cy="143" r="3.5"/>
<text class="legend" x="854" y="147">Nemotron 3.5 30B-A3B</text>
<rect class="panel" x="42" y="165" width="1116" height="425" rx="16"/>
<text class="plot-title" x="70" y="190">LightMoE complete-layer latency · 21-sample median</text>
<line class="grid" x1="105" y1="535.00" x2="1145" y2="535.00"/>
<text class="tick" x="91" y="539.00" text-anchor="end">0.01</text>
<line class="grid" x1="105" y1="491.83" x2="1145" y2="491.83"/>
<text class="tick" x="91" y="495.83" text-anchor="end">0.02</text>
<line class="grid" x1="105" y1="434.76" x2="1145" y2="434.76"/>
<text class="tick" x="91" y="438.76" text-anchor="end">0.05</text>
<line class="grid" x1="105" y1="391.59" x2="1145" y2="391.59"/>
<text class="tick" x="91" y="395.59" text-anchor="end">0.1</text>
<line class="grid" x1="105" y1="348.41" x2="1145" y2="348.41"/>
<text class="tick" x="91" y="352.41" text-anchor="end">0.2</text>
<line class="grid" x1="105" y1="291.34" x2="1145" y2="291.34"/>
<text class="tick" x="91" y="295.34" text-anchor="end">0.5</text>
<line class="grid" x1="105" y1="248.17" x2="1145" y2="248.17"/>
<text class="tick" x="91" y="252.17" text-anchor="end">1</text>
<line class="grid" x1="105" y1="205.00" x2="1145" y2="205.00"/>
<text class="tick" x="91" y="209.00" text-anchor="end">2</text>
<line class="grid" x1="105.00" y1="205" x2="105.00" y2="535"/>
<text class="tick" x="105.00" y="558" text-anchor="middle">1</text>
<line class="grid" x1="345.00" y1="205" x2="345.00" y2="535"/>
<text class="tick" x="345.00" y="558" text-anchor="middle">8</text>
<line class="grid" x1="505.00" y1="205" x2="505.00" y2="535"/>
<text class="tick" x="505.00" y="558" text-anchor="middle">32</text>
<line class="grid" x1="665.00" y1="205" x2="665.00" y2="535"/>
<text class="tick" x="665.00" y="558" text-anchor="middle">128</text>
<line class="grid" x1="825.00" y1="205" x2="825.00" y2="535"/>
<text class="tick" x="825.00" y="558" text-anchor="middle">512</text>
<line class="grid" x1="985.00" y1="205" x2="985.00" y2="535"/>
<text class="tick" x="985.00" y="558" text-anchor="middle">2,048</text>
<line class="grid" x1="1145.00" y1="205" x2="1145.00" y2="535"/>
<text class="tick" x="1145.00" y="558" text-anchor="middle">8,192</text>
<text class="axis" transform="translate(64 370.00) rotate(-90)" text-anchor="middle">Latency (ms, log scale)</text>
<text class="axis" x="625" y="585" text-anchor="middle">Input tokens per MoE layer (before top-k)</text>
<path class="line c0" d="M 105.00 512.43 L 345.00 512.27 L 505.00 496.88 L 665.00 469.10 L 825.00 456.16 L 985.00 405.35 L 1145.00 333.89"/>
<circle class="marker c0" cx="105.00" cy="512.43" r="4.5"/>
<circle class="marker c0" cx="345.00" cy="512.27" r="4.5"/>
<circle class="marker c0" cx="505.00" cy="496.88" r="4.5"/>
<circle class="marker c0" cx="665.00" cy="469.10" r="4.5"/>
<circle class="marker c0" cx="825.00" cy="456.16" r="4.5"/>
<circle class="marker c0" cx="985.00" cy="405.35" r="4.5"/>
<circle class="marker c0" cx="1145.00" cy="333.89" r="4.5"/>
<path class="line c1" d="M 105.00 490.27 L 345.00 465.05 L 505.00 441.02 L 665.00 430.48 L 825.00 402.69 L 985.00 344.58 L 1145.00 264.39"/>
<circle class="marker c1" cx="105.00" cy="490.27" r="4.5"/>
<circle class="marker c1" cx="345.00" cy="465.05" r="4.5"/>
<circle class="marker c1" cx="505.00" cy="441.02" r="4.5"/>
<circle class="marker c1" cx="665.00" cy="430.48" r="4.5"/>
<circle class="marker c1" cx="825.00" cy="402.69" r="4.5"/>
<circle class="marker c1" cx="985.00" cy="344.58" r="4.5"/>
<circle class="marker c1" cx="1145.00" cy="264.39" r="4.5"/>
<path class="line c2" d="M 105.00 490.23 L 345.00 484.28 L 505.00 441.98 L 665.00 436.14 L 825.00 410.38 L 985.00 352.91 L 1145.00 272.24"/>
<circle class="marker c2" cx="105.00" cy="490.23" r="4.5"/>
<circle class="marker c2" cx="345.00" cy="484.28" r="4.5"/>
<circle class="marker c2" cx="505.00" cy="441.98" r="4.5"/>
<circle class="marker c2" cx="665.00" cy="436.14" r="4.5"/>
<circle class="marker c2" cx="825.00" cy="410.38" r="4.5"/>
<circle class="marker c2" cx="985.00" cy="352.91" r="4.5"/>
<circle class="marker c2" cx="1145.00" cy="272.24" r="4.5"/>
<path class="line c3" d="M 105.00 447.90 L 345.00 438.40 L 505.00 408.47 L 665.00 397.22 L 825.00 380.94 L 985.00 313.08 L 1145.00 228.84"/>
<circle class="marker c3" cx="105.00" cy="447.90" r="4.5"/>
<circle class="marker c3" cx="345.00" cy="438.40" r="4.5"/>
<circle class="marker c3" cx="505.00" cy="408.47" r="4.5"/>
<circle class="marker c3" cx="665.00" cy="397.22" r="4.5"/>
<circle class="marker c3" cx="825.00" cy="380.94" r="4.5"/>
<circle class="marker c3" cx="985.00" cy="313.08" r="4.5"/>
<circle class="marker c3" cx="1145.00" cy="228.84" r="4.5"/>
<path class="line c4" d="M 105.00 457.42 L 345.00 453.69 L 505.00 421.05 L 665.00 412.21 L 825.00 395.56 L 985.00 337.26 L 1145.00 254.70"/>
<circle class="marker c4" cx="105.00" cy="457.42" r="4.5"/>
<circle class="marker c4" cx="345.00" cy="453.69" r="4.5"/>
<circle class="marker c4" cx="505.00" cy="421.05" r="4.5"/>
<circle class="marker c4" cx="665.00" cy="412.21" r="4.5"/>
<circle class="marker c4" cx="825.00" cy="395.56" r="4.5"/>
<circle class="marker c4" cx="985.00" cy="337.26" r="4.5"/>
<circle class="marker c4" cx="1145.00" cy="254.70" r="4.5"/>
<path class="line c5" d="M 105.00 504.15 L 345.00 504.11 L 505.00 465.06 L 665.00 461.28 L 825.00 435.07 L 985.00 386.22 L 1145.00 307.24"/>
<circle class="marker c5" cx="105.00" cy="504.15" r="4.5"/>
<circle class="marker c5" cx="345.00" cy="504.11" r="4.5"/>
<circle class="marker c5" cx="505.00" cy="465.06" r="4.5"/>
<circle class="marker c5" cx="665.00" cy="461.28" r="4.5"/>
<circle class="marker c5" cx="825.00" cy="435.07" r="4.5"/>
<circle class="marker c5" cx="985.00" cy="386.22" r="4.5"/>
<circle class="marker c5" cx="1145.00" cy="307.24" r="4.5"/>
<text class="footer" x="55" y="638">Balanced deterministic routing · model-derived EP shards · preparation and compilation excluded</text>
</svg>
